<?xml version="1.0" standalone="no"?>
<!DOCTYPE svg PUBLIC "-//W3C//DTD SVG 20010904//EN"
 "http://www.w3.org/TR/2001/REC-SVG-20010904/DTD/svg10.dtd">
<svg version="1.0" xmlns="http://www.w3.org/2000/svg"
 width="946.000000pt" height="334.000000pt" viewBox="0 0 946.000000 334.000000"
 preserveAspectRatio="xMidYMid meet">
<metadata>
Created by potrace 1.16, written by Peter Selinger 2001-2019
</metadata>
<g transform="translate(0.000000,334.000000) scale(0.100000,-0.100000)"
fill="#000000" stroke="none">
<path d="M810 3187 c-179 -54 -331 -199 -391 -374 -21 -61 -42 -216 -40 -293
1 -33 -1 -41 -9 -30 -8 13 -10 13 -10 -2 0 -10 5 -18 10 -18 7 0 10 -32 8 -82
-1 -46 2 -93 6 -105 4 -13 3 -31 -3 -40 -10 -17 -10 -17 -11 1 0 11 -3 17 -6
13 -3 -3 -3 -15 1 -26 6 -20 14 -21 131 -21 l124 0 0 188 c0 103 5 216 11 251
11 72 43 154 67 173 13 11 14 11 7 -1 -5 -10 -4 -12 4 -7 6 4 9 11 6 16 -8 12
65 78 111 100 65 32 147 43 221 30 75 -13 115 -29 106 -43 -3 -6 -1 -7 6 -3
16 11 114 -63 107 -81 -3 -8 -1 -11 4 -8 13 8 64 -71 56 -90 -3 -9 -2 -14 3
-11 15 9 33 -90 29 -153 -2 -33 0 -57 4 -55 11 7 10 -29 -2 -61 -7 -17 -7 -24
0 -20 6 3 10 1 10 -4 0 -6 -6 -11 -12 -11 -9 0 -10 -2 -2 -8 14 -9 18 -122 4
-122 -6 0 -10 -5 -10 -11 0 -5 5 -7 10 -4 6 4 10 -5 10 -19 0 -18 -6 -26 -17
-27 -15 0 -15 -2 2 -9 30 -13 265 -12 265 1 0 5 -4 7 -10 4 -7 -4 -10 71 -10
218 0 274 -4 297 -77 466 -5 10 -2 12 7 6 9 -6 11 -4 6 4 -5 7 -11 10 -14 7
-3 -4 -20 15 -39 41 -65 91 -176 175 -286 213 -48 17 -91 23 -187 26 -109 4
-135 1 -200 -19z"/>
<path d="M722 2124 c4 -5 -98 -10 -243 -10 l-250 -2 -55 -27 c-59 -29 -103
-79 -126 -143 -10 -29 -13 -191 -13 -757 0 -715 0 -720 22 -790 53 -168 182
-291 339 -325 32 -7 252 -10 634 -8 l585 3 58 23 c129 52 241 170 282 297 19
57 20 91 20 810 l0 750 -22 42 c-28 52 -86 100 -138 115 -27 7 -211 11 -555
12 -283 1 -521 5 -529 10 -8 5 -12 5 -9 0z m934 -408 c29 -29 34 -41 34 -79 0
-67 -38 -114 -208 -258 -66 -55 -82 -86 -76 -149 41 -491 55 -729 45 -768 -14
-49 -55 -77 -101 -67 -25 5 -74 45 -56 45 4 0 1 7 -8 15 -8 9 -52 128 -97 265
-46 138 -88 250 -93 250 -14 0 -207 -135 -218 -152 -5 -7 -7 -101 -6 -208 2
-107 -1 -201 -5 -207 -5 -7 -19 -13 -33 -13 -28 0 -36 16 -111 215 -24 66 -51
130 -59 142 -16 26 -83 62 -161 87 -97 32 -129 91 -77 143 29 29 52 28 211
-13 52 -14 103 -22 113 -19 11 3 44 40 75 81 33 43 61 71 67 68 7 -4 8 -2 4 5
-8 13 12 44 23 37 4 -3 8 6 9 18 1 21 -14 28 -176 86 -275 97 -327 118 -351
144 -38 40 -27 111 21 137 34 18 115 12 438 -35 l305 -45 37 22 c20 12 93 75
162 140 138 130 163 147 220 147 30 0 45 -7 72 -34z"/>
<path d="M7376 2039 c2 -4 -6 -9 -19 -12 -12 -2 -31 -8 -41 -12 -15 -6 -17 -5
-11 5 5 9 4 11 -4 6 -6 -4 -9 -11 -6 -16 3 -5 -3 -15 -13 -22 -44 -31 -75 -96
-80 -168 l-5 -70 -151 0 -152 0 -21 -62 c-12 -35 -54 -153 -94 -262 l-73 -200
-14 35 c-8 18 -52 135 -97 259 l-83 225 -111 3 c-70 2 -118 -2 -129 -8 -15
-10 -15 -11 0 -6 9 3 19 -2 22 -10 9 -24 7 -36 -6 -28 -7 4 -8 3 -4 -5 4 -6
11 -9 15 -7 11 7 73 -144 67 -161 -3 -8 -2 -11 3 -8 12 7 24 -31 15 -46 -4 -8
-3 -9 4 -5 7 4 12 6 12 4 0 -2 25 -64 55 -138 29 -73 51 -138 48 -143 -4 -6
-1 -7 7 -2 10 6 12 3 8 -13 -4 -12 -3 -20 2 -17 4 2 21 -31 39 -74 l31 -79
-19 -42 c-10 -23 -22 -41 -25 -40 -4 1 -11 -2 -14 -6 -4 -4 -1 -4 6 0 17 10
17 10 -37 -113 l-49 -111 112 0 111 0 54 128 c121 286 349 839 360 874 20 61
29 53 29 -24 0 -40 1 -78 1 -83 1 -6 18 -9 41 -7 l40 4 0 -298 0 -299 97 2 98
2 3 295 2 294 95 -2 95 -2 0 88 0 88 -95 0 -95 0 0 38 c0 44 13 68 30 57 8 -5
11 -4 6 3 -3 6 -1 14 5 18 19 11 92 5 101 -9 6 -9 8 -9 8 1 0 9 5 10 18 3 17
-9 18 -4 15 81 -1 50 -5 93 -8 97 -9 8 -204 8 -199 0z"/>
<path d="M2396 2022 c-15 -3 -16 -49 -16 -520 l0 -517 97 3 c53 1 99 4 101 6
4 5 3 1018 -1 1022 -5 5 -161 10 -181 6z"/>
<path d="M4355 2019 c-2 -3 -3 -237 -1 -519 l3 -515 99 1 99 1 3 130 c2 112 5
133 21 147 18 16 21 13 72 -56 29 -40 63 -88 76 -106 13 -17 21 -37 17 -44 -4
-6 -3 -8 3 -5 6 4 21 -9 34 -28 l24 -35 85 -1 c47 0 97 -3 112 -5 14 -2 29 0
33 5 4 8 -133 198 -287 397 -5 7 47 72 147 182 85 95 155 174 155 177 0 3 -55
5 -122 4 l-123 0 -100 -120 c-55 -66 -111 -130 -125 -144 l-25 -24 0 282 0
281 -98 1 c-55 0 -100 -3 -102 -6z"/>
<path d="M8410 1761 c0 -9 -9 -12 -30 -9 -16 3 -28 2 -25 0 2 -3 0 -13 -6 -23
-6 -13 -6 -19 1 -19 14 0 13 -53 -2 -68 -10 -10 -10 -17 0 -33 8 -12 9 -18 3
-14 -6 3 -11 -1 -11 -10 0 -9 5 -13 10 -10 6 4 10 -33 10 -104 0 -62 -4 -112
-10 -116 -5 -3 -10 -12 -10 -18 0 -7 4 -6 10 3 6 10 10 -44 10 -163 0 -116 -3
-176 -10 -172 -5 3 -10 1 -10 -4 0 -7 35 -11 96 -11 73 0 93 -3 88 -12 -6 -10
-3 -9 9 0 14 12 16 44 19 235 3 202 5 226 24 262 30 58 82 85 167 85 l67 0 0
85 c0 47 0 88 0 93 1 11 -72 24 -106 17 -17 -3 -53 -20 -80 -37 -27 -18 -53
-31 -57 -30 -5 1 -6 -1 -3 -6 2 -4 0 -14 -5 -22 -7 -11 -9 0 -7 35 l2 50 -64
3 c-36 2 -68 8 -72 15 -6 9 -8 8 -8 -2z"/>
<path d="M3015 1748 c-218 -28 -371 -250 -326 -470 37 -174 157 -290 331 -317
175 -28 354 65 426 222 26 56 29 72 29 172 0 100 -3 116 -29 172 -34 73 -108
148 -185 188 -62 31 -158 44 -246 33z m149 -208 c45 -22 92 -82 80 -101 -4 -7
-3 -9 3 -6 16 10 23 -17 23 -83 0 -70 -12 -105 -48 -144 -75 -80 -230 -74
-291 13 -46 64 -48 206 -4 265 54 73 155 96 237 56z"/>
<path d="M3875 1749 c-250 -36 -398 -304 -305 -551 82 -221 395 -316 590 -180
49 35 135 140 124 152 -3 2 -44 19 -92 37 l-87 33 -23 -30 c-75 -96 -239 -79
-301 31 -41 73 -37 185 10 251 28 39 92 70 144 70 48 0 110 -26 125 -51 32
-55 31 -55 116 -21 44 16 85 34 93 39 29 19 -71 146 -146 184 -64 34 -163 48
-248 36z"/>
<path d="M5181 1751 l-43 -6 0 -290 c1 -159 1 -330 1 -380 l1 -90 71 3 c43 1
77 -2 85 -9 10 -8 14 -8 14 0 0 6 6 11 13 11 10 0 13 50 12 233 0 214 2 235
20 266 31 52 68 75 120 74 56 -2 80 -15 102 -56 15 -27 19 -69 23 -287 3 -140
9 -249 13 -242 6 8 37 12 98 12 l89 0 0 225 c0 177 3 233 15 261 8 20 19 33
25 29 5 -3 7 0 5 7 -8 20 51 50 95 50 49 -1 73 -14 101 -53 21 -30 22 -40 22
-275 l1 -244 98 0 98 0 0 269 c0 310 -6 342 -75 416 -22 25 -39 46 -36 48 4 2
0 2 -7 0 -7 -1 -22 2 -33 7 -64 35 -187 27 -251 -15 -21 -14 -44 -23 -51 -19
-7 4 -9 4 -5 -1 4 -4 -2 -21 -13 -37 l-21 -28 -42 42 c-26 28 -38 46 -31 51 6
5 3 7 -7 3 -9 -3 -31 2 -47 10 -69 34 -187 18 -259 -36 l-52 -40 0 45 c0 44
-1 45 -32 45 -18 0 -42 2 -53 4 -11 2 -40 1 -64 -3z"/>
<path d="M7834 1745 c-70 -15 -132 -52 -168 -99 -24 -32 -54 -112 -44 -121 7
-7 49 -13 103 -15 38 -1 45 -4 30 -10 -14 -6 -16 -9 -4 -9 17 -1 59 34 59 50
0 19 65 49 108 49 47 0 86 -15 77 -30 -3 -6 1 -7 9 -4 10 4 18 -5 25 -33 19
-67 27 -62 -122 -83 -211 -31 -307 -111 -307 -256 0 -40 7 -73 20 -98 10 -22
17 -43 14 -48 -3 -5 -2 -7 3 -6 14 5 73 -45 66 -55 -3 -6 -1 -7 5 -3 6 4 35 0
65 -9 83 -24 171 -2 246 61 l31 26 0 -31 c0 -19 6 -34 15 -37 8 -4 12 -11 8
-18 -3 -6 3 -3 14 7 14 12 37 17 86 17 l67 0 -3 273 c-3 255 -4 275 -25 321
-12 26 -19 53 -15 59 3 5 2 7 -4 4 -5 -3 -25 9 -43 28 -63 65 -201 96 -316 70z
m206 -452 c-1 -50 -18 -104 -40 -128 -12 -13 -44 -29 -71 -35 -42 -10 -53 -9
-86 7 -34 16 -38 22 -41 61 -5 66 32 96 136 111 99 15 102 14 102 -16z"/>
<path d="M9119 1749 c-37 -4 -76 -12 -88 -19 -12 -6 -26 -8 -31 -5 -6 4 -9 1
-8 -7 2 -7 -5 -12 -15 -12 -10 1 -16 0 -13 -3 3 -3 -17 -30 -44 -59 -75 -83
-94 -142 -95 -294 0 -115 2 -130 27 -182 14 -31 24 -59 22 -62 -2 -3 -2 -5 1
-3 2 2 30 -21 61 -50 34 -32 75 -59 104 -70 27 -10 45 -20 40 -23 -4 -3 34 -4
86 -3 119 4 183 27 247 89 46 45 47 46 47 110 l0 64 -62 0 c-60 -1 -64 -2 -83
-33 -25 -40 -82 -60 -148 -54 -75 7 -126 56 -141 135 l-5 32 220 0 220 0 -1
170 c-1 93 -5 168 -9 167 -4 -1 -29 17 -56 41 -27 23 -41 40 -32 36 9 -3 17
-1 17 4 0 6 -9 9 -21 7 -11 -2 -32 1 -47 6 -45 18 -123 25 -193 18z m152 -185
c24 -22 59 -86 59 -108 0 -13 -22 -15 -140 -14 -91 1 -140 5 -140 12 0 6 -5 4
-10 -4 -8 -13 -10 -12 -10 3 0 51 64 135 95 123 10 -4 14 -2 9 5 -13 21 112 5
137 -17z"/>
</g>
</svg>
<svg xmlns="http://www.w3.org/2000/svg" viewBox="0 0 100 100" role="img" aria-label="LockMyFare logo">
  <defs>
    <!-- Deep multi-stop gradient background -->
    <radialGradient id="bgRadial" cx="30%" cy="20%" r="80%">
      <stop offset="0%" stop-color="#ffffff" stop-opacity="0.18" />
      <stop offset="40%" stop-color="#1a73e8" stop-opacity="0.98" />
      <stop offset="85%" stop-color="#001b4f" stop-opacity="1" />
    </radialGradient>

    <linearGradient id="bgSweep" x1="0%" y1="0%" x2="100%" y2="100%">
      <stop offset="0%" stop-color="#00e5ff" />
      <stop offset="50%" stop-color="#00c853" />
      <stop offset="100%" stop-color="#00b0ff" />
    </linearGradient>

    <!-- Glassy airplane gradient -->
    <linearGradient id="planeBody" x1="0%" y1="0%" x2="100%" y2="0%">
      <stop offset="0%" stop-color="#ffffff" />
      <stop offset="45%" stop-color="#f5fbff" />
      <stop offset="100%" stop-color="#c5e1ff" />
    </linearGradient>

    <linearGradient id="planeShadow" x1="0%" y1="0%" x2="100%" y2="0%">
      <stop offset="0%" stop-color="#0d47a1" stop-opacity="0.8" />
      <stop offset="100%" stop-color="#42a5f5" stop-opacity="0.2" />
    </linearGradient>

    <!-- Shadow and glow -->
    <filter id="badgeShadow" x="-25%" y="-25%" width="150%" height="150%">
      <feDropShadow dx="0" dy="4" stdDeviation="5" flood-color="#000000" flood-opacity="0.35" />
    </filter>

    <filter id="innerGlow" x="-20%" y="-20%" width="140%" height="140%">
      <feGaussianBlur in="SourceAlpha" stdDeviation="2" result="blur" />
      <feComposite in="blur" in2="SourceAlpha" operator="out" result="glow" />
      <feColorMatrix in="glow" type="matrix" values="0 0 0 0 1  0 0 0 0 1  0 0 0 0 1  0 0 0 0.6 0" />
      <feMerge>
        <feMergeNode />
        <feMergeNode in="SourceGraphic" />
      </feMerge>
    </filter>
  </defs>

  <!-- Outer badge with subtle 3D edge -->
  <circle cx="50" cy="50" r="46" fill="#021024" filter="url(#badgeShadow)" />
  <circle cx="50" cy="50" r="44" fill="url(#bgRadial)" stroke="url(#bgSweep)" stroke-width="1.6" />

  <!-- Soft inner glow ring -->
  <circle cx="50" cy="50" r="36" fill="none" stroke="#e3f2fd" stroke-opacity="0.5" stroke-width="1.4" filter="url(#innerGlow)" />

  <!-- Dynamic flight path (gives motion and depth) -->
  <path
    d="M 18 64 C 30 44 45 38 60 36 C 72 35 82 32 86 26"
    fill="none"
    stroke="url(#bgSweep)"
    stroke-width="2.8"
    stroke-linecap="round"
    stroke-opacity="0.9"
  />

  <!-- Trailing motion blur under airplane -->
  <path
    d="M 30 60 C 42 48 57 44 74 40"
    fill="none"
    stroke="#ffffff"
    stroke-opacity="0.18"
    stroke-width="4.4"
    stroke-linecap="round"
  />

  <!-- Airplane group with subtle shading for HD look -->
  <g transform="translate(66,34) rotate(-28)">
    <!-- lower shadow silhouette -->
    <path
      d="M -16.5 0.7 L 10 0.7 L 14 -0.4 L 16 -1.6 L 16 2.6 L 14 1.3 L 10 0.7 Z"
      fill="url(#planeShadow)"
      opacity="0.45"
    />

    <!-- fuselage -->
    <path
      d="M -16 0 L 10 0 L 14 -1.2 L 16 -2 L 16 2 L 14 1.2 L 10 0 Z"
      fill="url(#planeBody)"
    />

    <!-- nose highlight -->
    <path
      d="M 8 -0.8 C 11 -1.2 13 -1.1 15 -0.7 C 15 0.7 13 1.1 8 0.8 Z"
      fill="#bbdefb"
      opacity="0.9"
    />

    <!-- main wings top -->
    <path
      d="M -4 -3 L -12 -12 L 2 -9 L 5 -3 Z"
      fill="url(#planeBody)"
    />
    <!-- main wings bottom -->
    <path
      d="M -4 3 L -12 12 L 2 9 L 5 3 Z"
      fill="url(#planeBody)"
    />

    <!-- wing edge accents -->
    <path d="M -10 -10 L 1 -7" stroke="#90caf9" stroke-width="0.5" stroke-linecap="round" opacity="0.8" />
    <path d="M -10 10 L 1 7" stroke="#90caf9" stroke-width="0.5" stroke-linecap="round" opacity="0.8" />

    <!-- tail planes -->
    <path d="M -16 0 L -22 -6 L -18 -1 Z" fill="url(#planeBody)" />
    <path d="M -16 0 L -22 6 L -18 1 Z" fill="url(#planeBody)" />

    <!-- cockpit windows strip -->
    <rect x="3.8" y="-1.4" width="7.4" height="2.8" rx="1.4" fill="#0d47a1" opacity="0.9" />
    <rect x="4.2" y="-1.1" width="3" height="2.2" rx="1.1" fill="#42a5f5" opacity="0.95" />
  </g>

  <!-- Star-like highlights for premium feel -->
  <g fill="#ffffff" fill-opacity="0.96">
    <circle cx="26" cy="24" r="1.6" />
    <path d="M26 21 L26.6 23.2 L29 23.2 L27 24.5 L27.6 26.7 L26 25.3 L24.4 26.7 L25 24.5 L23 23.2 L25.4 23.2 Z" opacity="0.9" />

    <circle cx="80" cy="30" r="1.2" opacity="0.9" />
    <circle cx="74" cy="72" r="1.4" opacity="0.85" />
  </g>

  <!-- Subtle bottom reflection to give HD/glass look -->
  <ellipse cx="50" cy="70" rx="24" ry="8" fill="#000000" opacity="0.16" />
</svg>
